<svg width="512" height="512" viewBox="0 0 512 512" fill="none" xmlns="http://www.w3.org/2000/svg">
<path d="M389.78 358.001C387.773 357.98 385.843 358.768 384.424 360.187C383.006 361.605 382.218 363.535 382.238 365.542C382.238 369.707 385.615 373.083 389.78 373.083C393.944 373.083 397.321 369.707 397.321 365.542C397.346 363.534 396.559 361.602 395.139 360.182C393.72 358.762 391.787 357.976 389.78 358.001ZM160.08 397.163C161.531 392.631 165.744 389.556 170.502 389.556C175.261 389.556 179.474 392.631 180.925 397.163H160.08ZM110.234 397.163C111.685 392.631 115.898 389.556 120.657 389.556C125.416 389.556 129.629 392.631 131.08 397.163H110.234ZM473.116 412.69C468.613 412.727 464.533 410.043 462.784 405.894C461.035 401.744 461.963 396.95 465.134 393.752C468.304 390.555 473.091 389.587 477.255 391.302C481.419 393.016 484.136 397.074 484.136 401.577C484.169 404.518 483.022 407.35 480.95 409.438C478.879 411.527 476.057 412.698 473.116 412.69H473.116ZM286.349 412.69C281.846 412.727 277.766 410.043 276.017 405.894C274.268 401.744 275.196 396.95 278.366 393.752C281.537 390.555 286.324 389.587 290.488 391.302C294.652 393.016 297.369 397.074 297.369 401.577C297.394 404.516 296.244 407.343 294.174 409.429C292.105 411.516 289.288 412.69 286.349 412.69ZM34.5618 380.134C24.0177 381.688 16.1566 390.659 16 401.316C16 413.027 25.1966 422.775 36.3398 422.775C38.9713 422.783 41.5776 422.262 44.0036 421.242V409.455C42.204 410.595 40.1248 411.215 37.9951 411.249C32.4682 411.283 27.9532 406.843 27.8942 401.316C27.9806 397.151 30.654 393.48 34.5924 392.12L34.5618 380.134ZM61.615 380.134H40.3249V391.721H49.7208V423.909C49.8026 426.45 48.8293 428.911 47.0319 430.708C45.2346 432.506 42.7735 433.479 40.233 433.397H34.5618V444.924H40.2483C45.8972 445.069 51.363 442.914 55.3918 438.951C59.4207 434.989 61.6668 429.56 61.615 423.909V380.134ZM79.2418 380.134H67.3782V423.051H79.2418V380.134ZM361.27 380.134H349.391V423.051H361.27V380.134ZM395.681 380.134H383.863V423.051H395.727L395.681 380.134ZM90.3543 378.938C87.2952 378.932 84.5342 380.771 83.3606 383.596C82.1871 386.421 82.8326 389.675 84.9958 391.838C87.1589 394.001 90.4128 394.647 93.2378 393.473C96.0629 392.299 97.9017 389.538 97.8955 386.479C97.9162 384.473 97.1284 382.543 95.7096 381.124C94.2909 379.705 92.3607 378.917 90.3543 378.938V378.938ZM120.611 378.938C109.222 379.106 99.7321 387.709 98.4503 399.027C97.1686 410.344 104.495 420.852 115.557 423.563C126.62 426.274 137.974 420.344 142.07 409.716H128.75C126.919 412.265 123.914 413.704 120.78 413.533C115.935 413.72 111.637 410.45 110.525 405.731H142.713C143.074 404.225 143.249 402.681 143.235 401.133C143.042 388.788 132.957 378.895 120.611 378.938ZM170.472 378.938C159.083 379.106 149.593 387.709 148.311 399.027C147.029 410.344 154.355 420.852 165.418 423.563C176.48 426.274 187.834 420.344 191.93 409.716H178.611C176.782 412.26 173.784 413.698 170.656 413.533C165.806 413.728 161.499 410.456 160.386 405.731H192.574C192.93 404.224 193.1 402.68 193.08 401.133C192.904 388.809 182.858 378.913 170.533 378.923L170.472 378.938ZM221.727 378.923C217.053 378.907 212.548 380.672 209.128 383.858V380.134H197.755V423.051H209.634V399.799C209.495 396.377 211.242 393.153 214.185 391.401C217.128 389.648 220.794 389.648 223.737 391.401C226.68 393.153 228.426 396.377 228.288 399.799L228.288 423.02H240.151V397.331C240.193 392.424 238.256 387.708 234.777 384.247C231.299 380.786 226.573 378.872 221.666 378.938L221.727 378.923ZM284.663 378.938C273.136 378.938 263.465 389.116 263.465 401.577C263.465 414.038 273.136 424.216 284.663 424.216C289.461 424.19 294.093 422.451 297.722 419.311L297.722 423.036H309.248V380.118H297.722V383.843C294.095 380.698 289.463 378.953 284.663 378.923V378.938ZM337.987 378.923C333.814 378.923 330.431 382.306 330.431 386.479C330.431 390.653 333.814 394.036 337.987 394.036C342.161 394.036 345.544 390.653 345.544 386.479C345.565 384.473 344.777 382.543 343.358 381.124C341.939 379.705 340.009 378.917 338.003 378.938L337.987 378.923ZM372.413 378.938C368.238 378.938 364.854 382.324 364.857 386.5C364.86 390.675 368.248 394.057 372.424 394.051C376.599 394.046 379.978 390.655 379.97 386.479C379.991 384.47 379.201 382.538 377.779 381.119C376.356 379.699 374.422 378.913 372.413 378.938ZM423.286 378.938C411.365 379.02 401.551 388.332 400.843 400.231C400.135 412.131 408.775 422.541 420.601 424.037C432.428 425.532 443.388 417.601 445.664 405.899H433.295C431.653 409.99 427.694 412.676 423.286 412.69C417.709 412.784 412.925 408.73 412.105 403.212C411.285 397.695 414.683 392.424 420.047 390.893C425.41 389.362 431.078 392.044 433.295 397.163H445.664C443.502 386.531 434.135 378.903 423.286 378.938ZM471.445 378.938C459.903 378.938 450.247 389.116 450.247 401.577C450.247 414.038 459.903 424.216 471.445 424.216C476.234 424.187 480.855 422.447 484.474 419.311V423.036H496V380.118H484.474V383.843C480.853 380.698 476.226 378.952 471.43 378.923L471.445 378.938ZM339.842 358.598H336.777C324.07 358.598 314.996 367.58 314.996 380.057V422.974H326.86V380.379C326.764 377.721 327.778 375.143 329.659 373.262C331.54 371.381 334.118 370.367 336.777 370.462L339.842 370.462V358.598Z" fill="#1EFF5A"/>
<path fill-rule="evenodd" clip-rule="evenodd" d="M208.542 71.4753C168.24 85.3355 147.085 128.37 161.559 167.056C169.636 188.643 188.455 206.023 211.246 212.946C220.476 215.75 225.527 216.263 237.759 215.638C246.07 215.214 254.904 214.035 257.393 213.02L261.916 211.174V191.396C261.916 180.518 261.677 171.618 261.386 171.618C261.095 171.618 257.322 172.822 253.001 174.294C243.626 177.49 225.83 176.745 218.282 172.842C206.031 166.507 198.832 155.178 198.69 142.013C198.565 130.293 203.06 121.574 213.108 114.056L220.797 108.303V88.1513C220.797 77.0674 220.241 68.0247 219.564 68.0543C218.886 68.0855 213.926 69.625 208.542 71.4753ZM284.932 208.214C284.927 229.821 284.174 249.156 283.199 252.666C282.25 256.084 279.179 261.493 276.373 264.687C268.083 274.13 260.664 276.951 241.226 278.051L224.087 279.021V298.512V318L239.3 317.972C267.608 317.918 285.154 311.923 301.967 296.556C319.327 280.689 325.835 261.222 326.136 224.25L326.277 206.98L340.149 195.786C353.787 184.78 354.021 184.469 354.021 177.283V169.974H319.481H284.942L284.932 208.214Z" fill="#1EFF5A"/>
<path fill-rule="evenodd" clip-rule="evenodd" d="M243.823 87.7368V107.474H264.382H284.942V128.084V148.694L305.09 148.232L325.238 147.77L325.679 107.885L326.119 68H284.971H243.823V87.7368Z" fill="#2E2260"/>
</svg>
